name Walk5.mot
datacolumns 19
datarows 25
range 1.44800000 1.47200000
endheader

                time	   L_ground_force_vx	   L_ground_force_vy	   L_ground_force_vz	   L_ground_force_px	   L_ground_force_py	   L_ground_force_pz	   R_ground_force_vx	   R_ground_force_vy	   R_ground_force_vz	   R_ground_force_px	   R_ground_force_py	   R_ground_force_pz	   L_ground_torque_x	   L_ground_torque_y	   L_ground_torque_z	   R_ground_torque_x	   R_ground_torque_y	   R_ground_torque_z	
          1.44800000	          0.00000000	          0.00000000	          0.00000000	          0.00000000	          0.00000000	          0.00000000	        -26.38707174	        735.98963214	        -44.66015987	          0.16601501	          0.00000000	          0.08046821	          0.00000000	          0.00000000	          0.00000000	          0.00000000	          1.76463541	          0.00000000	
          1.44900000	          0.00000000	          0.00000000	          0.00000000	          0.00000000	          0.00000000	          0.00000000	        -26.00168756	        734.23160378	        -44.50650487	          0.16649786	          0.00000000	          0.08040681	          0.00000000	          0.00000000	          0.00000000	          0.00000000	          1.74259582	          0.00000000	
          1.45000000	          0.00000000	          0.00000000	          0.00000000	          0.00000000	          0.00000000	          0.00000000	        -25.60656519	        732.54951997	        -44.31793861	          0.16699201	          0.00000000	          0.08037079	          0.00000000	          0.00000000	          0.00000000	          0.00000000	          1.71218757	          0.00000000	
          1.45100000	          0.00000000	          0.00000000	          0.00000000	          0.00000000	          0.00000000	          0.00000000	        -25.22219900	        730.94863905	        -44.10707819	          0.16748101	          0.00000000	          0.08035926	          0.00000000	          0.00000000	          0.00000000	          0.00000000	          1.67826046	          0.00000000	
          1.45200000	          0.00000000	          0.00000000	          0.00000000	          0.00000000	          0.00000000	          0.00000000	        -24.86897658	        729.42634332	        -43.89598968	          0.16795150	          0.00000000	          0.08037142	          0.00000000	          0.00000000	          0.00000000	          0.00000000	          1.64811537	          0.00000000	
          1.45300000	          0.00000000	          0.00000000	          0.00000000	          0.00000000	          0.00000000	          0.00000000	        -24.54770126	        727.97758073	        -43.69841305	          0.16839903	          0.00000000	          0.08040727	          0.00000000	          0.00000000	          0.00000000	          0.00000000	          1.62918979	          0.00000000	
          1.45400000	          0.00000000	          0.00000000	          0.00000000	          0.00000000	          0.00000000	          0.00000000	        -24.24102953	        726.57968899	        -43.50961722	          0.16882738	          0.00000000	          0.08045606	          0.00000000	          0.00000000	          0.00000000	          0.00000000	          1.62256097	          0.00000000	
          1.45500000	          0.00000000	          0.00000000	          0.00000000	          0.00000000	          0.00000000	          0.00000000	        -23.93418389	        725.21721820	        -43.31058333	          0.16925469	          0.00000000	          0.08050169	          0.00000000	          0.00000000	          0.00000000	          0.00000000	          1.61866110	          0.00000000	
          1.45600000	          0.00000000	          0.00000000	          0.00000000	          0.00000000	          0.00000000	          0.00000000	        -23.62463706	        723.91631642	        -43.08652477	          0.16970028	          0.00000000	          0.08054051	          0.00000000	          0.00000000	          0.00000000	          0.00000000	          1.60738511	          0.00000000	
          1.45700000	          0.00000000	          0.00000000	          0.00000000	          0.00000000	          0.00000000	          0.00000000	        -23.31337880	        722.68466909	        -42.84364024	          0.17014894	          0.00000000	          0.08057246	          0.00000000	          0.00000000	          0.00000000	          0.00000000	          1.59089082	          0.00000000	
          1.45800000	          0.00000000	          0.00000000	          0.00000000	          0.00000000	          0.00000000	          0.00000000	        -22.99634873	        721.45528275	        -42.60009277	          0.17055780	          0.00000000	          0.08058534	          0.00000000	          0.00000000	          0.00000000	          0.00000000	          1.57915058	          0.00000000	
          1.45900000	          0.00000000	          0.00000000	          0.00000000	          0.00000000	          0.00000000	          0.00000000	        -22.66438627	        720.16146110	        -42.35685867	          0.17092118	          0.00000000	          0.08057248	          0.00000000	          0.00000000	          0.00000000	          0.00000000	          1.57331780	          0.00000000	
          1.46000000	          0.00000000	          0.00000000	          0.00000000	          0.00000000	          0.00000000	          0.00000000	        -22.30921884	        718.81135491	        -42.08986222	          0.17129118	          0.00000000	          0.08054951	          0.00000000	          0.00000000	          0.00000000	          0.00000000	          1.56063293	          0.00000000	
          1.46100000	          0.00000000	          0.00000000	          0.00000000	          0.00000000	          0.00000000	          0.00000000	        -21.93200533	        717.45311365	        -41.78082806	          0.17171181	          0.00000000	          0.08053975	          0.00000000	          0.00000000	          0.00000000	          0.00000000	          1.53066465	          0.00000000	
          1.46200000	          0.00000000	          0.00000000	          0.00000000	          0.00000000	          0.00000000	          0.00000000	        -21.54691339	        716.12639466	        -41.43855854	          0.17217093	          0.00000000	          0.08055937	          0.00000000	          0.00000000	          0.00000000	          0.00000000	          1.48859980	          0.00000000	
          1.46300000	          0.00000000	          0.00000000	          0.00000000	          0.00000000	          0.00000000	          0.00000000	        -21.17235495	        714.85527263	        -41.07953213	          0.17262271	          0.00000000	          0.08061299	          0.00000000	          0.00000000	          0.00000000	          0.00000000	          1.44753206	          0.00000000	
          1.46400000	          0.00000000	          0.00000000	          0.00000000	          0.00000000	          0.00000000	          0.00000000	        -20.81866668	        713.65177902	        -40.70728794	          0.17302702	          0.00000000	          0.08068901	          0.00000000	          0.00000000	          0.00000000	          0.00000000	          1.41784769	          0.00000000	
          1.46500000	          0.00000000	          0.00000000	          0.00000000	          0.00000000	          0.00000000	          0.00000000	        -20.48698500	        712.51592629	        -40.31738786	          0.17337784	          0.00000000	          0.08076467	          0.00000000	          0.00000000	          0.00000000	          0.00000000	          1.40393227	          0.00000000	
          1.46600000	          0.00000000	          0.00000000	          0.00000000	          0.00000000	          0.00000000	          0.00000000	        -20.17622089	        711.43880739	        -39.90632733	          0.17371225	          0.00000000	          0.08081849	          0.00000000	          0.00000000	          0.00000000	          0.00000000	          1.40071104	          0.00000000	
          1.46700000	          0.00000000	          0.00000000	          0.00000000	          0.00000000	          0.00000000	          0.00000000	        -19.88772082	        710.41111202	        -39.47250833	          0.17408149	          0.00000000	          0.08084069	          0.00000000	          0.00000000	          0.00000000	          0.00000000	          1.39479343	          0.00000000	
          1.46800000	          0.00000000	          0.00000000	          0.00000000	          0.00000000	          0.00000000	          0.00000000	        -19.62328158	        709.43526530	        -39.02260447	          0.17451113	          0.00000000	          0.08084201	          0.00000000	          0.00000000	          0.00000000	          0.00000000	          1.37534069	          0.00000000	
          1.46900000	          0.00000000	          0.00000000	          0.00000000	          0.00000000	          0.00000000	          0.00000000	        -19.38057006	        708.52607044	        -38.57709719	          0.17498826	          0.00000000	          0.08084998	          0.00000000	          0.00000000	          0.00000000	          0.00000000	          1.34253390	          0.00000000	
          1.47000000	          0.00000000	          0.00000000	          0.00000000	          0.00000000	          0.00000000	          0.00000000	        -19.15151938	        707.67671141	        -38.15732091	          0.17547822	          0.00000000	          0.08088211	          0.00000000	          0.00000000	          0.00000000	          0.00000000	          1.30268344	          0.00000000	
          1.47100000	          0.00000000	          0.00000000	          0.00000000	          0.00000000	          0.00000000	          0.00000000	        -18.92196925	        706.84192032	        -37.77211474	          0.17596322	          0.00000000	          0.08092087	          0.00000000	          0.00000000	          0.00000000	          0.00000000	          1.26051385	          0.00000000	
          1.47200000	          0.00000000	          0.00000000	          0.00000000	          0.00000000	          0.00000000	          0.00000000	        -18.67537595	        705.99241561	        -37.42023394	          0.17646027	          0.00000000	          0.08093075	          0.00000000	          0.00000000	          0.00000000	          0.00000000	          1.22021803	          0.00000000	
